<svg xmlns="http://www.w3.org/2000/svg" width="2144.8594" height="266.6667"><defs><clipPath id="a" clipPathUnits="userSpaceOnUse"><path d="M-230.4863-157.493h1612.659V42.009h-1612.659Z"/></clipPath><clipPath id="b" clipPathUnits="userSpaceOnUse"><path d="M-200 100h1612.659v-200H-200Z"/></clipPath><clipPath id="c" clipPathUnits="userSpaceOnUse"><path d="M-114.142 1.0001h1612.659v-200H-114.142Z"/></clipPath><clipPath id="d" clipPathUnits="userSpaceOnUse"><path d="M-170 100h1612.659v-200H-170Z"/></clipPath><clipPath id="e" clipPathUnits="userSpaceOnUse"><path d="M-130 100h1612.659v-200H-130Z"/></clipPath></defs><path fill="#2e2d62" fill-rule="evenodd" d="M103.5948-54.2975c0 11.1986-1.9805 21.0178-5.9415 29.4577-3.9609 8.434-9.6269 14.9451-16.9921 19.5333C73.293-.7242 64.8438 1.5669 55.3135 1.5669c-9.4307 0-17.8447-2.262-25.2422-6.7916-7.3916-4.5356-13.1191-11.0058-17.1797-19.4164-4.0634-8.4165-6.123-18.0896-6.1758-29.0252v-5.6227c0-11.1986 2.0186-21.0558 6.0586-29.5746 4.0372-8.5158 9.7413-15.0503 17.1094-19.6034 7.3653-4.559 15.7881-6.8384 25.2656-6.8384 9.4834 0 17.9092 2.2795 25.2774 6.8384 7.3652 4.553 13.0693 11.0876 17.1094 19.6034 4.037 8.5188 6.0585 18.3497 6.0585 29.4928zm-23.754-5.1551c0-11.9234-2.1386-20.9828-6.4101-27.1783-4.2656-6.2013-10.3565-9.3049-18.2695-9.3049-7.8692 0-13.9395 3.0627-18.211 9.188-4.2656 6.1195-6.4277 15.0883-6.4804 26.9094v5.5409c0 11.6194 2.1328 20.632 6.3984 27.038 4.2715 6.4058 10.4209 9.6088 18.4453 9.6088 7.8662 0 13.9102-3.086 18.129-9.2582 4.2187-6.172 6.3515-15.1672 6.3983-26.9912zm110.5225 17.9668c0 13.0222-2.959 23.4552-8.871 31.293C175.586-2.352 167.6054 1.567 157.5507 1.567c-8.54 0-15.4394-2.9691-20.6953-8.9074v39.838h-22.582V-84.5268h20.9414l.7734 8.2763c5.4668-6.5608 12.6035-9.8427 21.4102-9.8427 10.412 0 18.5097 3.8547 24.293 11.561 5.7802 7.7093 8.6718 18.3351 8.6718 31.8775zm-22.5703-1.6365c0-7.8612-1.3945-13.9281-4.1836-18.2007-2.789-4.2696-6.8408-6.4059-12.1523-6.4059-7.0782 0-11.9473 2.7091-14.6016 8.1243v34.6011c2.7568 5.573 7.6787 8.358 14.7656 8.358 10.7813 0 16.1719-8.8256 16.1719-26.4768zm72.2666 44.6892c-12.3984 0-22.4941-3.802-30.2813-11.409-7.7812-7.604-11.6718-17.736-11.6718-30.3929v-2.186c0-8.4866 1.6406-16.076 4.9218-22.7712 3.2813-6.6923 7.9278-11.8474 13.9454-15.4653 6.0146-3.6238 12.8789-5.4357 20.5898-5.4357 11.5605 0 20.6602 3.6472 27.293 10.9415 6.6387 7.2884 9.961 17.625 9.961 31.0124v9.223h-53.8243c.7324 5.5175 2.9355 9.945 6.6094 13.2794 3.6709 3.3286 8.3203 4.9915 13.9453 4.9915 8.6953 0 15.4922-3.1474 20.3906-9.4452l11.086 12.4143c-3.3839 4.7927-7.9659 8.5334-13.7462 11.222-5.7832 2.6798-12.1875 4.0212-19.2187 4.0212zm-2.5781-69.3776c-4.4766 0-8.1094 1.5138-10.8985 4.5356-2.789 3.0159-4.5761 7.3381-5.3554 12.9637h31.4062v-1.8002c-.1025-4.9944-1.459-8.8607-4.0664-11.596-2.6015-2.7354-6.2988-4.103-11.086-4.103zm96.1289 4.4537c-3.0703-.412-5.7774-.6195-8.1211-.6195-8.54 0-14.1387 2.8873-16.793 8.662V.0005h-22.582v-84.5273h21.3281l.6211 10.0764c4.5293-7.7618 10.8076-11.6428 18.832-11.6428 2.499 0 4.8428.339 7.0313 1.017zM391.8965.0005c-1.04-2.034-1.793-4.559-2.2617-7.5748-5.4697 6.096-12.58 9.1412-21.3281 9.1412-8.2823 0-15.1465-2.3963-20.5899-7.189-5.4463-4.7928-8.168-10.8363-8.168-18.1306 0-8.9542 3.3194-15.8277 9.961-20.6204 6.6387-4.7927 16.2363-7.2154 28.793-7.2709h10.3945v-4.8395c0-3.9043-1.0049-7.0283-3.0117-9.375-2.0098-2.3438-5.1739-3.5186-9.4922-3.5186-3.8057 0-6.791.9118-8.9531 2.7354-2.1563 1.8236-3.2344 4.3251-3.2344 7.5047h-22.582c0-4.8921 1.5117-9.4247 4.5351-13.595 3.0234-4.1673 7.292-7.4375 12.8086-9.8075 5.5225-2.3672 11.7217-3.5537 18.5977-3.5537 10.412 0 18.6796 2.6185 24.7968 7.8554 6.123 5.237 9.1875 12.5955 9.1875 22.07v36.635c.0527 8.019 1.172 14.086 3.3516 18.2007V.0005Zm-18.668-15.699c3.3282 0 6.3985-.7394 9.211-2.221 2.8125-1.4876 4.8984-3.4836 6.2578-5.9852v-14.53h-8.4375c-11.3057 0-17.3203 3.9042-18.0469 11.7129l-.082 1.3326c0 2.8142.9873 5.1317 2.9649 6.9553 1.9834 1.8235 4.6933 2.7353 8.1328 2.7353zm80.88-89.6123v20.784h14.4492v16.5642h-14.4493v42.1876c0 3.127.5977 5.3655 1.793 6.7215 1.1953 1.3502 3.4863 2.0223 6.8789 2.0223 2.499 0 4.711-.1812 6.6328-.5494V-.4671c-4.4238 1.356-8.9765 2.034-13.664 2.034-15.838 0-23.9122-7.9956-24.2227-23.987v-45.5425h-12.3399v-16.5642h12.3399v-20.784ZM504.9764.0005h-22.6522v-84.5273h22.6523zM481-106.3979c0-3.39 1.1309-6.175 3.3985-8.358 2.2646-2.189 5.3496-3.2849 9.2578-3.2849 3.8496 0 6.9199 1.096 9.211 3.2848 2.2968 2.183 3.4452 4.968 3.4452 8.358 0 3.4368-1.1601 6.251-3.4804 8.44-2.3204 2.183-5.3848 3.273-9.1875 3.273-3.797 0-6.8555-1.09-9.1758-3.273-2.3145-2.189-3.4688-5.0032-3.4688-8.44zm35.8389 63.3574c0-8.3843 1.6113-15.8569 4.8398-22.4206 3.2344-6.5695 7.8809-11.6486 13.9453-15.2432 6.0704-3.5916 13.1163-5.3889 21.1407-5.3889 11.4052 0 20.7129 3.4923 27.9258 10.4739 7.21 6.9757 11.2324 16.453 12.0703 28.429l.1523 5.7864c0 12.9695-3.621 23.3733-10.8633 31.2111C578.8135-2.352 569.1045 1.567 556.917 1.567s-21.914-3.9043-29.1797-11.713c-7.2656-7.8144-10.8984-18.446-10.8984-31.889zm22.582 1.6366c0 8.019 1.5059 14.1531 4.5235 18.3993 3.0234 4.2404 7.3476 6.3592 12.9726 6.3592 5.4668 0 9.7383-2.0925 12.8086-6.2773 3.0762-4.1907 4.6172-10.8976 4.6172-20.1178 0-7.87-1.541-13.9632-4.6172-18.2825-3.0703-4.3251-7.3916-6.4877-12.961-6.4877-5.5253 0-9.7968 2.1509-12.8202 6.4527-3.0176 4.2959-4.5235 10.9472-4.5235 19.954zm88.9102-43.1229.7031 9.7608c6.0469-7.5514 14.1475-11.3272 24.3047-11.3272 8.9531 0 15.6152 2.6302 19.9922 7.8905 4.374 5.2603 6.6123 13.1274 6.7148 23.6012V.0005h-22.5703v-54.0642c0-4.7928-1.043-8.2675-3.1289-10.4271-2.08-2.1568-5.54-3.238-10.3828-3.238-6.3604 0-11.127 2.709-14.2969 8.1242V.0005h-22.582v-84.5273Zm113.0098 61.1716c0-2.7588-1.3682-4.933-4.1016-6.5228-2.7363-1.5898-7.125-3.01-13.1719-4.2667-20.1035-4.2141-30.1523-12.7563-30.1523-25.6236 0-7.4959 3.1084-13.7586 9.328-18.785 6.2257-5.0266 14.3673-7.5399 24.422-7.5399 10.7256 0 19.3037 2.5308 25.7343 7.5866 6.4366 5.0499 9.6563 11.6136 9.6563 19.6852h-22.582c0-3.2322-1.043-5.9032-3.129-8.0074-2.08-2.11-5.332-3.1678-9.7617-3.1678-3.7968 0-6.7382.862-8.8242 2.5834-2.086 1.7154-3.1289 3.9014-3.1289 6.5578 0 2.5016 1.1836 4.521 3.5508 6.0552 2.373 1.5372 6.375 2.864 12 3.9862 5.625 1.1163 10.3623 2.3788 14.2148 3.7874 11.9297 4.3719 17.8946 11.9526 17.8946 22.7362 0 7.7093-3.3106 13.9456-9.9258 18.715-6.6094 4.7635-15.1494 7.1423-25.6172 7.1423-7.087 0-13.3799-1.2625-18.879-3.7874-5.493-2.5308-9.8026-5.9968-12.9257-10.392-3.126-4.4012-4.6875-9.1559-4.6875-14.2613h21.4102c.2109 4.0154 1.6933 7.0897 4.453 9.223 2.757 2.1363 6.4571 3.203 11.0977 3.203 4.3184 0 7.585-.8183 9.797-2.4548 2.2177-1.6424 3.328-3.7933 3.328-6.4526zm126.331 8.9775c-4.2188 5.0587-10.1836 8.9835-17.8945 11.7714C842.0723.176 833.5352 1.567 824.1602 1.567c-9.8438 0-18.4776-2.145-25.8985-6.441-7.4238-4.3017-13.1543-10.538-17.1914-18.715-4.0312-8.1826-6.0996-17.7915-6.1992-28.8264v-7.7385c0-11.3535 1.9131-21.1844 5.7422-29.4928 3.8262-8.3054 9.3457-14.6587 16.5586-19.054 7.21-4.4011 15.6592-6.6046 25.3477-6.6046 13.4912 0 24.038 3.2146 31.6406 9.6439 7.5996 6.4293 12.1055 15.7926 13.5117 28.09h-22.8047c-1.04-6.514-3.3457-11.2804-6.914-14.2963-3.5713-3.0218-8.4815-4.5356-14.7305-4.5356-7.9688 0-14.0361 2.9984-18.1992 8.9893-4.166 5.985-6.2754 14.8896-6.3282 26.7107v7.2709c0 11.9234 2.2647 20.933 6.797 27.0263 4.5292 6.096 11.1708 9.1412 19.9218 9.1412 8.8037 0 15.082-1.8732 18.832-5.6227v-19.615H822.918v-17.2656h44.7539zM934.1407.0005c-1.04-2.034-1.793-4.559-2.2618-7.5748-5.4697 6.096-12.58 9.1412-21.328 9.1412-8.2823 0-15.1466-2.3963-20.59-7.189-5.4462-4.7928-8.1679-10.8363-8.1679-18.1306 0-8.9542 3.3193-15.8277 9.961-20.6204 6.6386-4.7927 16.2363-7.2154 28.7929-7.2709h10.3945v-4.8395c0-3.9043-1.0049-7.0283-3.0117-9.375-2.0098-2.3438-5.1738-3.5186-9.4922-3.5186-3.8056 0-6.791.9118-8.9531 2.7354-2.1563 1.8236-3.2344 4.3251-3.2344 7.5047h-22.582c0-4.8921 1.5117-9.4247 4.5351-13.595 3.0235-4.1673 7.292-7.4375 12.8087-9.8075 5.5224-2.3672 11.7216-3.5537 18.5976-3.5537 10.4121 0 18.6797 2.6185 24.7969 7.8554 6.123 5.237 9.1875 12.5955 9.1875 22.07v36.635c.0527 8.019 1.1719 14.086 3.3515 18.2007V.0005Zm-18.668-15.699c3.3281 0 6.3984-.7394 9.211-2.221 2.8124-1.4876 4.8984-3.4836 6.2577-5.9852v-14.53h-8.4375c-11.3056 0-17.3203 3.9042-18.0468 11.7129l-.082 1.3326c0 2.8142.9873 5.1317 2.9648 6.9553 1.9834 1.8235 4.6934 2.7353 8.1328 2.7353zm80.877-89.6123v20.784h14.4492v16.5642h-14.4493v42.1876c0 3.127.5977 5.3655 1.793 6.7215 1.1953 1.3502 3.4863 2.0223 6.8789 2.0223 2.499 0 4.7109-.1812 6.6328-.5494V-.4671c-4.4238 1.356-8.9765 2.034-13.664 2.034-15.838 0-23.9122-7.9956-24.2227-23.987v-45.5425h-12.3398v-16.5642h12.3398v-20.784Zm65.9531 106.8777c-12.3985 0-22.4942-3.802-30.2813-11.409-7.7812-7.604-11.6719-17.736-11.6719-30.3929v-2.186c0-8.4866 1.6407-16.076 4.9219-22.7712 3.2813-6.6923 7.9277-11.8474 13.9453-15.4653 6.0147-3.6238 12.8789-5.4357 20.5899-5.4357 11.5605 0 20.6601 3.6472 27.2929 10.9415 6.6387 7.2884 9.961 17.625 9.961 31.0124v9.223h-53.8242c.7324 5.5175 2.9355 9.945 6.6093 13.2794 3.6709 3.3286 8.3203 4.9915 13.9453 4.9915 8.6954 0 15.4922-3.1474 20.3907-9.4452l11.0859 12.4143c-3.3838 4.7927-7.9658 8.5334-13.7461 11.222-5.7832 2.6798-12.1875 4.0212-19.2187 4.0212zm-2.5782-69.3776c-4.4765 0-8.1093 1.5138-10.8984 4.5356-2.7891 3.0159-4.5762 7.3381-5.3555 12.9637h31.4063v-1.8002c-.1026-4.9944-1.459-8.8607-4.0664-11.596-2.6016-2.7354-6.2989-4.103-11.086-4.103zm121.9834 37.1144 11.0977-53.8305h21.7969L1193.0401.0005h-18.9024l-16.0195-53.1992L1142.0987.0005h-18.8204l-21.5625-84.5273h21.7969l11.0156 53.7487 15.4688-53.7487h16.3242zM1271.5821.0005c-1.0401-2.034-1.793-4.559-2.2618-7.5748-5.4697 6.096-12.58 9.1412-21.3281 9.1412-8.2822 0-15.1465-2.3963-20.5898-7.189-5.4463-4.7928-8.168-10.8363-8.168-18.1306 0-8.9542 3.3193-15.8277 9.9609-20.6204 6.6387-4.7927 16.2364-7.2154 28.793-7.2709h10.3945v-4.8395c0-3.9043-1.0048-7.0283-3.0117-9.375-2.0097-2.3438-5.1738-3.5186-9.4922-3.5186-3.8056 0-6.791.9118-8.9531 2.7354-2.1562 1.8236-3.2344 4.3251-3.2344 7.5047h-22.582c0-4.8921 1.5117-9.4247 4.5352-13.595 3.0234-4.1673 7.292-7.4375 12.8086-9.8075 5.5224-2.3672 11.7216-3.5537 18.5976-3.5537 10.4121 0 18.6797 2.6185 24.7969 7.8554 6.123 5.237 9.1875 12.5955 9.1875 22.07v36.635c.053 8.019 1.1719 14.086 3.3515 18.2007V.0005Zm-18.668-15.699c3.3281 0 6.3984-.7394 9.2109-2.221 2.8125-1.4876 4.8985-3.4836 6.2578-5.9852v-14.53h-8.4375c-11.3056 0-17.3203 3.9042-18.0468 11.7129l-.082 1.3326c0 2.8142.9873 5.1317 2.9649 6.9553 1.9834 1.8235 4.6933 2.7353 8.1328 2.7353zm85.4004-16.2486 15.6328-52.5797h24.2109l-33.9843 97.6547-1.875 4.4537c-5.0479 11.0408-13.3799 16.5642-24.9961 16.5642-3.2813 0-6.6153-.4969-9.9961-1.4846V15.5476l3.4336.0819c4.2714 0 7.4648-.6546 9.5742-1.9639 2.1094-1.3034 3.7617-3.46 4.957-6.476l2.6602-6.9553-29.6133-84.761h24.293zm0 0" aria-label="OperationsGateway" clip-path="url(#a)" transform="matrix(1.3333 0 0 1.3367 307.315 210.515)"/><path fill="#fff" fill-rule="evenodd" d="M0 0c0-55.228-44.772-100-100-100S-200-55.228-200 0s44.772 100 100 100S0 55.228 0 0" clip-path="url(#b)" transform="matrix(1.3333 0 0 -1.3333 266.6667 133.3333)"/><path fill="#1e5df8" fill-rule="evenodd" d="m0 0-57.782-57.782-14.142 14.143L-28.284 0c-48.53-6.871-85.858-48.573-85.858-99 0-50.397 37.283-92.079 85.77-98.987l58.77 58.769L44.54-153.36-.116-198.016C48.471-191.195 85.858-149.467 85.858-99 85.858-48.573 48.53-6.871 0 0" clip-path="url(#c)" transform="matrix(1.3333 0 0 -1.3333 152.1893 1.3335)"/><path fill="none" stroke="#fff" stroke-miterlimit="10" stroke-width="20" d="M0 0c0-38.66-31.34-70-70-70s-70 31.34-70 70 31.34 70 70 70S0 38.66 0 0Z" clip-path="url(#d)" transform="matrix(1.3333 0 0 -1.3333 226.6667 133.3333)"/><path fill="none" stroke="#fff" stroke-miterlimit="10" stroke-width="20" d="M0 0c0-16.569-13.431-30-30-30-16.569 0-30 13.431-30 30 0 16.569 13.431 30 30 30C-13.431 30 0 16.569 0 0Z" clip-path="url(#e)" transform="matrix(1.3333 0 0 -1.3333 173.3333 133.3333)"/></svg>